<svg id="magicoon-Bold"
    xmlns="http://www.w3.org/2000/svg"
    viewBox="0 0 24 24">
    <defs>
        <style>.cls-1{fill:#41416e;}</style>
    </defs>
    <title>home</title>
    <g id="home-Bold">
        <path
            id="home-Bold-2"
            class="cls-1"
            d="M20.135,7.118l-5-4.019a5.035,5.035,0,0,0-6.27,0l-5,4.019A4.973,4.973,0,0,0,2,11.01V17A5,5,0,0,0,7,22h3V17a2,2,0,0,1,4,0V22h3A5,5,0,0,0,22,17V11.01A4.973,4.973,0,0,0,20.135,7.118ZM20,17A3,3,0,0,1,17,20H16V17a4,4,0,0,0-8,0V20H7A3,3,0,0,1,4,17V11.01A2.982,2.982,0,0,1,5.118,8.677l5-4.019a3.024,3.024,0,0,1,3.764,0l5,4.019A2.979,2.979,0,0,1,20,11.01Z" />
    </g>
</svg>